<svg xmlns="http://www.w3.org/2000/svg" width="70" height="70" viewBox="0 0 70 70"><g><g><path fill="#22222b" d="M35 0c19.33 0 35 15.67 35 35S54.33 70 35 70 0 54.33 0 35 15.67 0 35 0z"/></g><g><path fill="#fff" d="M23.74 35.359a.477.477 0 0 1-.04.19.504.504 0 0 1-.662.268.508.508 0 0 1-.274-.269.496.496 0 0 1-.029-.286.5.5 0 0 1 .597-.39.553.553 0 0 1 .182.073.525.525 0 0 1 .187.224.484.484 0 0 1 .039.19zm16.323-7.03a.485.485 0 0 1-.226.412.511.511 0 0 1-.475.045.5.5 0 0 1-.314-.458.48.48 0 0 1 .086-.276.496.496 0 0 1 .322-.21.508.508 0 0 1 .607.486zm.095 6.67c0 2.793-2.321 5.064-5.174 5.064-2.854 0-5.175-2.271-5.175-5.063s2.321-5.063 5.175-5.063c2.853 0 5.174 2.271 5.174 5.063zm-1.014 0c0-2.244-1.866-4.07-4.16-4.07s-4.16 1.826-4.16 4.07c0 2.245 1.866 4.071 4.16 4.071s4.16-1.826 4.16-4.07zm-1.03 0c0 1.69-1.404 3.064-3.13 3.064-1.727 0-3.131-1.374-3.131-3.063 0-1.69 1.404-3.063 3.13-3.063 1.727 0 3.131 1.374 3.131 3.063zM37.1 35c0-1.14-.95-2.07-2.116-2.07-1.167 0-2.117.93-2.117 2.07 0 1.143.95 2.071 2.117 2.071 1.166 0 2.116-.928 2.116-2.07zm6.603 0a8.43 8.43 0 0 1-1.977 5.405 8.79 8.79 0 0 1-4.593 2.865c-.182 1-1.077 1.76-2.15 1.76-1.072 0-1.967-.76-2.15-1.76a8.79 8.79 0 0 1-4.59-2.863A8.428 8.428 0 0 1 26.264 35a8.43 8.43 0 0 1 1.966-5.391 8.793 8.793 0 0 1 4.604-2.878c.182-1 1.077-1.76 2.15-1.76 1.204 0 2.183.958 2.183 2.135 0 1.179-.98 2.137-2.183 2.137a2.182 2.182 0 0 1-2.085-1.502c-3.283.906-5.62 3.887-5.62 7.259 0 3.377 2.335 6.353 5.62 7.259a2.182 2.182 0 0 1 2.085-1.502c.978 0 1.808.632 2.085 1.502 3.284-.906 5.62-3.883 5.62-7.26 0-1.9-.729-3.716-2.05-5.114a.489.489 0 0 1 .027-.702.515.515 0 0 1 .717.028A8.402 8.402 0 0 1 43.703 35zm-9.888-7.893c0 .631.524 1.144 1.169 1.144.644 0 1.169-.513 1.169-1.144 0-.63-.525-1.143-1.17-1.143-.644 0-1.168.513-1.168 1.143zm2.338 15.787c0-.63-.525-1.144-1.17-1.144-.644 0-1.168.513-1.168 1.144 0 .63.524 1.144 1.169 1.144.644 0 1.169-.513 1.169-1.144zm11.636-2.503a2.189 2.189 0 0 1-2.008 1.291c-.188 0-.378-.023-.565-.072a12.274 12.274 0 0 1-4.168 3.819A12.454 12.454 0 0 1 34.983 47c-5.848 0-10.91-4.074-12.035-9.686a.497.497 0 0 1 .4-.583.507.507 0 0 1 .596.392c1.032 5.148 5.675 8.884 11.04 8.884 3.778 0 7.236-1.814 9.338-4.875a2.109 2.109 0 0 1-.544-2.431c.38-.863 1.274-1.357 2.182-1.285.181-.79.273-1.6.273-2.416 0-6.07-5.046-11.008-11.25-11.008-3.755 0-7.235 1.82-9.337 4.876.674.596.922 1.569.543 2.43a2.19 2.19 0 0 1-2.009 1.293c-.287 0-.579-.056-.86-.174-1.105-.466-1.618-1.725-1.142-2.807.434-.987 1.542-1.491 2.573-1.219C27.036 25.015 30.857 23 34.984 23c6.762 0 12.264 5.383 12.264 12 0 .92-.108 1.836-.32 2.726a2.116 2.116 0 0 1 .861 2.664zM24.645 29.404a1.181 1.181 0 0 0-.46-.093c-.453 0-.885.259-1.075.691-.255.58.02 1.254.612 1.503a1.18 1.18 0 0 0 1.535-.599 1.135 1.135 0 0 0-.612-1.502zm21.6 9.09a1.18 1.18 0 0 0-1.535.6c-.255.579.02 1.253.612 1.502a1.18 1.18 0 0 0 1.536-.599 1.136 1.136 0 0 0-.612-1.503z"/></g></g></svg>