<svg xmlns="http://www.w3.org/2000/svg" width="70" height="70" viewBox="0 0 70 70"><g><g><path fill="#22222b" d="M35 0c19.33 0 35 15.67 35 35S54.33 70 35 70 0 54.33 0 35 15.67 0 35 0z"/></g><g><path fill="#fff" d="M45 27.697c0 3.256-3.408 5.704-5.271 6.317-.702 1.156-1.5 1.99-2.375 2.481.067.258.078.49.078.496 0 .008-.04.644-.322.948v.88c.819.225 1.367.606 1.552 1.071h1.077c.2 0 .36.16.36.36v4.703h.264c.199 0 .36.161.36.36v1.327a.36.36 0 0 1-.36.36h-9.726a.36.36 0 0 1-.36-.36v-1.327a.36.36 0 0 1 .36-.36h.263V40.25a.36.36 0 0 1 .36-.36h1.077c.185-.464.734-.846 1.553-1.071v-.889c-.282-.306-.323-.93-.323-.94 0-.004.012-.237.078-.496-.875-.491-1.673-1.325-2.374-2.48-1.863-.612-5.271-3.06-5.271-6.317 0-1.594 1.369-2.888 2.98-2.763a15.382 15.382 0 0 1-.007-.322c0-.163.063-.316.178-.432a.605.605 0 0 1 .431-.18h11.835a.603.603 0 0 1 .608.614 15.79 15.79 0 0 1-.006.32A2.778 2.778 0 0 1 45 27.697zm-.721 0c0-1.207-1.04-2.19-2.29-2.039l-.023.373c-.177 2.63-.76 5.037-1.687 6.966 1.63-.837 4-2.795 4-5.3zm-17.559 0c0 2.505 2.37 4.463 4 5.3-.926-1.929-1.51-4.335-1.687-6.967a26.783 26.783 0 0 1-.023-.371c-1.25-.154-2.29.83-2.29 2.038zm9.669 10.976v-.576h-1.778v.576l.014-.002a6.646 6.646 0 0 1 1.764.002zm3.614 7h-9.006v.608h9.006zm-.624-5.064H31.62v4.344h7.758zm-.72 1.078v2.188a.36.36 0 0 1-.36.36h-5.597a.36.36 0 0 1-.36-.36v-2.188a.36.36 0 0 1 .36-.36h5.596c.2 0 .36.161.36.36zm-.721.36h-4.876v1.468h4.876zm3.365-17.329H29.696c.004.199.012.395.02.592.01.248.023.46.037.672.173 2.57.743 4.91 1.649 6.768.13.268.271.53.418.779.615 1.041 1.329 1.825 2.072 2.277h3.216c.743-.452 1.457-1.236 2.072-2.277.146-.248.287-.51.418-.78.906-1.857 1.476-4.197 1.649-6.767.014-.212.026-.424.035-.64.009-.207.017-.414.02-.624zm-.755.875l-.02.335c-.157 2.317-.69 4.51-1.502 6.176-.116.239-.242.475-.376.701-.478.81-1.026 1.447-1.586 1.845l-.418-.586c.478-.34.956-.9 1.383-1.623.124-.21.241-.43.35-.65.772-1.585 1.28-3.684 1.43-5.91l.02-.325zm-3.836 11.398a1.986 1.986 0 0 0-.105-.466h-2.214c-.052.139-.104.38-.105.466.001.073.047.269.094.386h2.236c.047-.117.093-.313.094-.386zm1.045 2.899c-.223-.167-.588-.331-1.084-.438a5.175 5.175 0 0 0-.478-.08 5.899 5.899 0 0 0-1.872.08c-.494.108-.858.271-1.08.438z"/></g></g></svg>